<svg width="1439" height="92" viewBox="0 0 1439 92" fill="none" xmlns="http://www.w3.org/2000/svg">
<path d="M1294 0.195026C1360 1.82711 1420.67 30.6024 1439 44.786V92L0 92V37.2085C65.5 7.48114 94 0.195026 145 0.195026C196 0.195026 232.5 10.3956 280.5 37.2085C328.5 64.0213 381 81.7995 432 81.7995C483 81.7995 526.289 62.2949 581.5 37.2085C644 8.80984 660 2.52658 715 0.195026C770 -2.13653 819 16.8074 854 37.2085C889 57.6096 943 81.7995 1012 81.7995C1067.2 81.7995 1129.33 52.0721 1153.5 37.2085C1175.33 24.1906 1228 -1.43706 1294 0.195026Z" fill="#171F26"/>
</svg>
