<svg width="1439" height="94" viewBox="0 0 1439 94" fill="none" xmlns="http://www.w3.org/2000/svg">
<path d="M145 93.8007C79 92.1332 18.3333 62.7323 0 48.2404V0H1439V55.9827C1373.5 86.3562 1345 93.8007 1294 93.8007C1243 93.8007 1206.5 83.3784 1158.5 55.9827C1110.5 28.5869 1058 10.4223 1007 10.4223C956 10.4223 912.711 30.3508 857.5 55.9827C795 84.9986 779 91.4185 724 93.8007C669 96.183 620 76.8273 585 55.9827C550 35.1381 496 10.4223 427 10.4223C371.8 10.4223 309.667 40.7959 285.5 55.9827C263.667 69.2835 211 95.4683 145 93.8007Z" fill="white"/>
</svg>
